<?xml version="1.0" encoding="UTF-8" standalone="no"?><!DOCTYPE svg PUBLIC "-//W3C//DTD SVG 1.1//EN" "http://www.w3.org/Graphics/SVG/1.1/DTD/svg11.dtd"><svg width="100%" height="100%" viewBox="0 0 3686 5581" version="1.1" xmlns="http://www.w3.org/2000/svg" xmlns:xlink="http://www.w3.org/1999/xlink" xml:space="preserve" xmlns:serif="http://www.serif.com/" style="fill-rule:evenodd;clip-rule:evenodd;stroke-linejoin:round;stroke-miterlimit:1.41421;"><rect id="Artboard1" x="0" y="0" width="3685.1" height="5580.64" style="fill:none;"/><g><path d="M2494.73,4721.73c754.986,-1105.75 -350.274,-2791.57 -431.614,-2921.69c-283.299,-453.183 1824.24,-661.284 1388.78,-710.555c-974.431,-110.255 -1483.46,348.111 -1694.6,-20.63c-167.766,-292.989 299.176,-575.257 1717.9,-756.711c-1214.05,-320.189 -2464.37,358.102 -2534.67,394.798c54.87,166.288 2131.06,2839.54 1029.17,3619.81c-371.756,263.237 -1581.35,394.258 -1261.15,-1040.03c0,0 -1297.61,780.122 68.675,2123.83c-180.404,-370.095 -166.47,-449.971 -166.47,-449.971c591.878,499.195 1583.49,201.327 1884.03,-238.814l-0.057,-0.027Z" style="fill:#54c5f8;fill-rule:nonzero;stroke:#54c5f8;stroke-width:100px;"/><path d="M2080.41,2714.97l544.137,280.432c168.639,555.236 226.004,1205.2 -129.81,1726.32l0.057,0.027c-300.542,440.141 -1292.15,738.009 -1884.03,238.814c0,0 -13.934,79.876 166.47,449.971c-1366.29,-1343.7 -68.675,-2123.83 -68.675,-2123.83c-320.192,1434.29 889.397,1303.27 1261.15,1040.03c451.924,-320.018 369.255,-958.46 110.701,-1611.77Z" style="fill:#01579b;stroke:#54c5f8;stroke-width:100px;stroke-linecap:round;stroke-miterlimit:1.5;"/></g></svg>